<?xml version="1.0" standalone="no"?>
<!DOCTYPE svg PUBLIC "-//W3C//DTD SVG 1.1//EN" "http://www.w3.org/Graphics/SVG/1.1/DTD/svg11.dtd" >
<svg xmlns="http://www.w3.org/2000/svg" xmlns:xlink="http://www.w3.org/1999/xlink" version="1.1">
<metadata>
Created by FontForge 20141024 at Tue Sep 29 09:11:17 2015
 By Jimmy Warting
</metadata>
<defs>
<font id="Untitled" horiz-adv-x="699" >
  <font-face 
    font-family="Untitled"
    font-weight="400"
    font-stretch="normal"
    units-per-em="1000"
    panose-1="0 0 0 0 0 0 0 0 0 0"
    ascent="750"
    descent="-250"
    bbox="0 -69 1242 885.28"
    underline-thickness="50"
    underline-position="-50"
    unicode-range="U+0F00-F28F"
  />
<missing-glyph 
 />
    <glyph glyph-name=".notdef" 
 />
    <glyph glyph-name="reports" unicode="&#xf23e;" horiz-adv-x="1249" 
d="M14 279q-13 70 2 136t52 120.5t92.5 92.5t125.5 52h1l36 -369l358 108q1 -6 2.5 -7t2.5 -6v-2q12 -68 -3 -134t-51.5 -119.5t-93 -91.5t-126.5 -52q-68 -13 -133.5 2t-120.5 52t-92.5 92t-51.5 126zM367 741q69 4 133 -18q27 -9 56 -24.5t54.5 -39.5t48.5 -58t38 -81
l-301 -98zM866 117h357q9 0 14 12t5 25.5t-5 25.5t-14 12h-357q-11 0 -16 -12t-5 -25.5t5 -25.5t16 -12zM866 325h357q9 0 14 12t5 26t-5 25.5t-14 11.5h-357q-11 0 -16 -11.5t-5 -25.5t5 -26t16 -12zM866 531h357q9 0 14 12t5 26t-5 25.5t-14 11.5h-357q-11 0 -16 -11.5
t-5 -25.5t5 -26t16 -12z" />
    <glyph glyph-name="addmethod" unicode="&#xf18;" 
d="M652 386v-82q0 -15 -11 -27.5t-29 -12.5h-175v-177q0 -16 -12.5 -28t-29.5 -12h-82q-15 0 -27.5 12t-12.5 28v177h-177q-16 0 -28 12.5t-12 27.5v82q0 15 12 27.5t28 12.5h177v176q0 19 12.5 30t27.5 11h82q17 0 29.5 -11t12.5 -30v-176h175q18 0 29 -12.5t11 -27.5z" />
    <glyph glyph-name="user" unicode="&#xf22e;" 
d="M55 51v71l198 127v50q-17 0 -33 37.5t-16 62.5v99q0 61 44 105t105.5 44t105 -44t43.5 -105v-99q0 -25 -16 -62.5t-33 -37.5v-50l198 -127v-71h-596z" />
    <glyph glyph-name="grabber" unicode="&#xf23b;" horiz-adv-x="349" 
d="M158 74h-62v62h62v-62zM266 74h-62v62h62v-62zM158 183h-62v62h62v-62zM266 183h-62v62h62v-62zM158 292h-62v62h62v-62zM266 292h-62v62h62v-62zM158 401h-62v62h62v-62zM266 401h-62v62h62v-62zM158 510h-62v62h62v-62zM266 510h-62v62h62v-62zM158 619h-62v62h62v-62z
M266 619h-62v62h62v-62z" />
    <glyph glyph-name="admin" unicode="&#xf23c;" horiz-adv-x="886" 
d="M248 274q5 -157 75 -216h-54h-268l10 56q1 11 14 30.5t33 33.5zM355 270q0 -10 -12 -17.5t-26 -6t-28 15t-16 25.5l-3 58q-5 10 -25 38t-27 127l-9 67q4 165 155.5 166t159.5 -142q3 -31 0.5 -52t-6 -46.5t-4.5 -36.5t-2 -12h-57l-39 -1q-15 -1 -26.5 -7.5t-19 -14.5
t-11.5 -18.5t-4 -18.5v-124zM831 428q21 0 36 -14.5t15 -36.5v-276q0 -23 -11 -33t-39 -10h-175q-4 -37 43 -38q100 -20 30 -18h-237q-39 0 78 24q24 0 23 30l-177 2q-18 2 -28.5 11t-10.5 32v276q0 22 15 36.5t35 14.5h403zM831 102v281h-403v-281h403z" />
    <glyph glyph-name="logout" unicode="&#xf22d;" horiz-adv-x="836" 
d="M351 95v-8.5v-12.5v-10.5t-3 -9t-12 -3.5h-148q-54 0 -94 40t-40 94v328q0 55 40 94t94 39h148q9 0 12 -4.5t3 -10.5v-9v-13v-11t-3 -8t-12 -2h-148q-31 0 -53 -22.5t-22 -52.5v-328q0 -31 22 -53t53 -22h133h6.5h5.5t5.5 -0.5t6 -0.5t4 -2t2.5 -5v-7zM773 328l-253 -254
q-7 -7 -19.5 -7t-21.5 8t-9 20v135h-207q-14 0 -22 8t-8 22v179q0 13 8 20.5t22 7.5h207v136q0 11 9 19.5t21.5 8.5t19.5 -7l253 -255q10 -8 10 -20t-10 -21z" />
    <glyph glyph-name="copy" unicode="&#xf08;" 
d="M555 438h-279v-380h279v380zM611 463v-425q0 -15 -10.5 -25.5t-24.5 -10.5h-321q-15 0 -25 10.5t-10 25.5v422q0 14 10 24.5t25 10.5h326q13 0 21.5 -8.5t8.5 -23.5zM136 227q-2 -17 -13.5 -27.5t-29.5 -10.5q-12 0 -12 10v391q0 14 10 24.5t25 10.5h293q11 -5 11 -14
q0 -6 -5 -13.5t-14 -14t-21 -11t-26 -4.5h-218v-341z" />
    <glyph glyph-name="starempty" unicode="&#xf22;" horiz-adv-x="700" 
d="M475 281l128 123l-177 27l-79 158l-78 -158l-177 -27l129 -123l-30 -174l156 81l158 -81zM694 428q0 -8 -11 -19l-152 -147l36 -207q2 -3 2 -9q0 -21 -19 -21q-7 0 -16 5l-187 98l-186 -98q-11 -5 -17 -5q-8 0 -11.5 6t-3.5 15q0 4 1 9l34 207l-151 147q-11 12 -11 19
q0 17 24 21l207 29l94 190q9 17 20.5 17t21.5 -17l93 -190l209 -29q23 -4 23 -21z" />
    <glyph glyph-name="starprimary" unicode="&#xf09;" 
d="M691 429q0 -10 -11 -21l-150 -145l36 -208v-7q0 -9 -4 -15t-13 -6q-7 0 -16 5l-186 97l-185 -97q-9 -5 -16 -5q-9 0 -13.5 6t-4.5 15q0 2 1 7l35 208l-150 145q-10 11 -10 21q0 15 23 18l208 30l93 188q7 17 19.5 17t19.5 -17l93 -188l207 -30q24 -3 24 -18z" />
    <glyph glyph-name="export" unicode="&#xf24;" 
d="M228 135q-51 9 -8 39q17 16 34.5 35t28.5 42.5t14 55t3 68.5v104h-69q-12 0 -15 10v16q1 2 2 3l139 138q6 6 13 6t12 -5l138 -139q6 -3 6 -12q0 -7 -4.5 -12t-11.5 -5h-70v-104q0 -132 -59.5 -184.5t-152.5 -55.5zM36 426q3 8 11.5 13t17.5 5t16.5 -6.5t7.5 -20.5v-292
q0 -26 20.5 -46.5t46.5 -20.5h390q26 0 46.5 20.5t20.5 46.5v291q0 14 8.5 19.5t19.5 5.5q10 0 18.5 -5t8.5 -15v-296q0 -24 -10 -46t-26.5 -38.5t-39 -26.5t-46.5 -10h-390q-24 0 -46 10t-38.5 26.5t-26.5 38.5t-10 46v293z" />
    <glyph glyph-name="clone" unicode="&#xf19;" horiz-adv-x="700" 
d="M588 489h-312v-425h312v425zM651 517v-476q0 -17 -11.5 -28.5t-27.5 -11.5h-359q-17 0 -28 11.5t-11 28.5v472q0 16 11 27.5t28 11.5h364q15 0 24.5 -9.5t9.5 -25.5zM118 257q-3 -19 -16 -30.5t-33 -11.5q-13 0 -13 11v437q0 16 11 27.5t28 11.5h328q12 -5 12 -15
q0 -7 -5.5 -15.5t-15.5 -15.5t-23.5 -12t-29.5 -5h-243v-382z" />
    <glyph glyph-name="uni0F11" unicode="&#xf11;" 
d="M331 70l112 211h-258l-111 -211h257zM396 702q81 1 126 1.5t69.5 0t35.5 -2t25 -5.5q5 -2 8 -9t4 -16.5t-1.5 -19t-7.5 -15.5l-17 -40l-248 -528q-30 -74 -84 -68h-232q-17 -3 -41 22t9 94l291 543q20 43 63 43z" />
    <glyph glyph-name="project_document" unicode="&#xf27f;" horiz-adv-x="917" 
d="M0 33v561q0 14 10 24t24 10h281v-191q0 -14 9.5 -23.5t23.5 -9.5h192v-371q0 -14 -10 -24t-24 -10h-472q-14 0 -24 10t-10 24zM135 145q0 -6 3.5 -8t7.5 -2h248q4 0 7.5 2t3.5 8v23q0 4 -3.5 7t-7.5 3h-248q-4 0 -7.5 -3t-3.5 -7v-23zM135 235q0 -5 3.5 -8.5t7.5 -3.5
h248q4 0 7.5 3.5t3.5 8.5v22q0 5 -3.5 8.5t-7.5 3.5h-248q-4 0 -7.5 -3.5t-3.5 -8.5v-22zM135 324q0 -3 3.5 -6.5t7.5 -3.5h248q4 0 7.5 3.5t3.5 6.5v23q0 5 -3.5 8t-7.5 3h-248q-4 0 -7.5 -3t-3.5 -8v-23zM361 449v166q6 -6 12 -10l142 -144q5 -4 10 -12h-164z" />
    <glyph glyph-name="formatbold" unicode="&#xf17;" 
d="M200 103h160q42 0 72 7t48 21t25.5 33.5t7.5 44.5t-7.5 45.5t-27 34t-51.5 21t-79 7.5h-148v-214zM200 416h138q29 0 55.5 2t47 11.5t32.5 27.5t12 51q0 32 -12 51t-33.5 29t-50.5 12.5t-63 2.5h-126v-187zM497 376q61 -14 95 -60t34 -107q-2 -45 -17.5 -83.5t-48 -66
t-82.5 -42.5t-118 -13h-269v699h264q128 0 183 -59q27 -28 40.5 -60t13.5 -65q0 -49 -25.5 -87.5t-69.5 -55.5z" />
    <glyph glyph-name="formatunderline" unicode="&#xf15;" 
d="M586 396q0 -45 -5.5 -84t-28.5 -81q-22 -41 -71 -68.5t-130 -27.5t-129.5 24t-71.5 62q-24 40 -30 81.5t-6 93.5v309h93v-309q0 -36 3.5 -67.5t17 -54.5t41 -38t74.5 -17q49 0 78.5 12t45 34t21 55t5.5 76v309h93v-309zM589 14q0 -5 -4.5 -9.5t-10.5 -4.5h-449
q-6 0 -10.5 4.5t-4.5 9.5v50q0 6 4.5 10.5t10.5 4.5h449q6 0 10.5 -4.5t4.5 -10.5v-50z" />
    <glyph glyph-name="fillarrow" unicode="&#xf10;" horiz-adv-x="360" 
d="M289 445q5 1 9 -3t4 -10t-4 -9l-108 -108q-4 -5 -9 -5t-9 4l-109 108q-4 4 -4 10t3 10q5 3 10 3h163h54z" />
    <glyph glyph-name="formatitalics" unicode="&#xf14;" 
d="M301 4h-162l244 697h162z" />
    <glyph glyph-name="grabberaction" unicode="&#xf13;" 
d="M560 25q0 -9 -5.5 -16t-12.5 -7h-133q-9 0 -15 7t-6 11.5v123.5q0 12 6 16.5t10.5 4.5h130.5q14 0 19.5 -4.5t5.5 -10.5v-125zM560 287q0 -10 -5.5 -16t-12.5 -6h-133q-9 0 -15 6t-6 11v121q0 14 6 19.5t10.5 5.5h130.5q14 0 19.5 -5.5t5.5 -12.5v-123zM316 25
q0 -9 -6 -16t-11 -7h-132q-9 0 -16 7t-7 11.5v123.5q0 12 7 16.5t11.5 4.5h131.5q10 0 16 -4.5t6 -10.5v-125zM316 287q0 -10 -6 -16t-11 -6h-132q-9 0 -16 6t-7 11v121q0 14 7 19.5t11.5 5.5h131.5q10 0 16 -5.5t6 -12.5v-123zM560 549q0 -10 -5.5 -15.5t-12.5 -5.5h-133
q-9 0 -15 5.5t-6 10.5v124q0 10 6 15.5t10.5 5.5h130.5q14 0 19.5 -5.5t5.5 -10.5v-124zM316 549q0 -10 -6 -15.5t-11 -5.5h-132q-9 0 -16 5.5t-7 10.5v124q0 10 7 15.5t11.5 5.5h131.5q10 0 16 -5.5t6 -10.5v-124z" />
    <glyph glyph-name="Add" unicode="&#xf12;" 
d="M616 237q23 54 23 113t-23 112.5t-61.5 92t-92.5 61.5t-112.5 23t-112 -23t-92.5 -61.5t-62 -92t-23 -112.5t23 -112.5t62 -92t92.5 -61.5t112 -23t112.5 23t92.5 61.5t61.5 91.5zM651 524q46 -80 46 -174t-47 -174t-126.5 -126.5t-174 -46.5t-174 46.5t-126.5 126.5
t-47 174t47 174t126.5 126.5t174 46.5t174 -46.5t127.5 -126.5zM550 351v-10q1 -12 -7.5 -20.5t-21.5 -8.5h-129v-129q0 -13 -9 -22t-21 -8h-18q-13 -1 -21.5 8t-7.5 22v129h-130q-13 0 -21.5 8.5t-8.5 20.5v10q0 13 8.5 21.5t21.5 8.5h130v129q-1 13 7.5 22t21.5 8h18
q12 0 20.5 -8.5t9.5 -21.5v-129h129q12 0 20.5 -8.5t8.5 -21.5z" />
    <glyph glyph-name="fillcolor" unicode="&#xf16;" 
d="M584 408q10 -13 0 -24l-271 -269q-12 -13 -24 0l-217 217q-13 14 0 26l183 184l-75 75q-10 13 -10 26t11 23.5t23.5 10.5t24.5 -13l75 -74l35 35q13 14 26 0v0zM448 346l51 49l-147 147l-197 -196h293zM636 231q13 -16 13 -35q0 -28 -18.5 -46.5t-44.5 -18.5
q-25 0 -44 19t-19 46q0 19 12 37l40 68v2h3v1q5 4 8 4q4 0 10 -5v0v-2zM653 16v33q0 7 -5 11.5t-10 4.5h-570q-5 0 -10 -4.5t-5 -11.5v-33q0 -4 5 -9t10 -5h570q5 0 10 5t5 9z" />
    <glyph glyph-name="library" unicode="&#xf23f;" horiz-adv-x="851" 
d="M203 686v-630q0 -23 -16 -39t-40 -16h-81q-22 0 -38.5 16t-16.5 39v630q0 22 16.5 38.5t38.5 16.5h81q24 0 40 -16.5t16 -38.5zM429 686v-630q0 -23 -16 -39t-39 -16h-81q-23 0 -39 16t-16 39v630q0 22 16 38.5t39 16.5h81q23 0 39 -16.5t16 -38.5zM650 710l181 -620
q5 -22 -6.5 -41.5t-33.5 -26.5l-79 -19q-23 -5 -42.5 6t-25.5 34l-180 621q-7 22 5 41t34 26l81 19q21 6 41 -5.5t25 -34.5z" />
    <glyph glyph-name="add" unicode="&#xf24f;" 
d="M652 359v-82q0 -15 -11 -27.5t-29 -12.5h-175v-177q0 -16 -12.5 -28t-29.5 -12h-82q-15 0 -27.5 12t-12.5 28v177h-177q-16 0 -28 12.5t-12 27.5v82q0 15 12 27.5t28 12.5h177v176q0 19 12.5 30t27.5 11h82q17 0 29.5 -11t12.5 -30v-176h175q18 0 29 -12.5t11 -27.5z" />
    <glyph glyph-name="trash" unicode="&#xf20;" 
d="M277 586h154l-22 53q-3 4 -7 5h-95q-5 -1 -8 -5zM652 571v-29q0 -7 -4.5 -11t-10.5 -4h-44v-430q0 -38 -21.5 -65.5t-51.5 -27.5h-332q-30 0 -51.5 27t-21.5 64v432h-44q-7 0 -11 4t-4 11v29q0 6 4 10.5t11 4.5h142l31 76q7 18 25 29.5t37 11.5h96q18 0 36.5 -11.5
t25.5 -29.5l31 -76h142q6 0 10.5 -4.5t4.5 -10.5zM115 458h478v68h-478v-68z" />
    <glyph glyph-name="copynew" unicode="&#xf25f;" horiz-adv-x="706" 
d="M588 419h-312v-425h312v425zM651 447v-476q0 -17 -11.5 -28.5t-27.5 -11.5h-359q-17 0 -28 11.5t-11 28.5v472q0 16 11 27.5t28 11.5h364q15 0 24.5 -9.5t9.5 -25.5zM118 187q-3 -19 -16 -30.5t-33 -11.5q-13 0 -13 11v437q0 16 11 27.5t28 11.5h328q12 -5 12 -15
q0 -7 -5.5 -15.5t-15.5 -15.5t-23.5 -12t-29.5 -5h-243v-382z" />
    <glyph glyph-name="comments" unicode="&#xf07;" 
d="M174 287q0 -6 4 -10t10 -4h336q6 0 10.5 4t4.5 10v28q0 6 -4.5 9t-10.5 3h-336q-6 0 -10 -3t-4 -9v-28zM174 379q0 -6 4 -9.5t10 -3.5h248q6 0 10.5 3.5t4.5 9.5v27q0 5 -4.5 9.5t-10.5 4.5h-248q-6 0 -10 -4.5t-4 -9.5v-27zM174 471q0 -3 4 -7.5t10 -4.5h306
q6 0 10.5 4.5t4.5 7.5v28q0 6 -4.5 9.5t-10.5 3.5h-306q-6 0 -10 -3.5t-4 -9.5v-28zM68 279v240q0 44 31.5 75.5t75.5 31.5h371q56 -10 76 -36.5t20 -70.5v-240q3 -34 -7.5 -55t-36.5 -39.5t-94 -19t-109 1t-91 0.5t-93 -44l-128 -115q-3 -4 -7 -4t-8 4l1 135q-1 127 -1 136
z" />
    <glyph glyph-name="history" unicode="&#xf05;" 
d="M87 157q-42 71 -42 155.5t41.5 155.5t112.5 112t155.5 41t155.5 -41t112 -112t41 -155.5t-41 -155.5t-112 -112.5t-155.5 -41.5t-155.5 41.5t-112 112.5zM165 422q-29 -50 -29 -109.5t29.5 -109.5t79.5 -79.5t109.5 -29.5t110 29.5t80 79.5t29.5 109.5t-29.5 110t-80 80
t-110 29.5t-109.5 -29.5t-80 -80.5zM251 274v25q0 7 3.5 10t9.5 3h90v142q0 6 4 9t9 3h26q5 0 9 -3t4 -9v-180q0 -6 -4 -9.5t-9 -3.5h-129q-6 0 -9.5 3.5t-3.5 9.5z" />
    <glyph glyph-name="starting_document.001" unicode="&#xf26f;" 
d="M1 33v562q0 13 9.5 23t23.5 10h281v-190q0 -15 9.5 -25t24.5 -10h190l-1 -24q-49 -51 -86.5 -88t-66 -64t-48 -46.5t-32.5 -35.5t-19.5 -29.5t-9.5 -30.5t-2.5 -37.5t2.5 -49.5l-242 2q-14 0 -23.5 10t-9.5 23zM360 449v165q8 -5 13 -10l142 -143q6 -5 11 -12h-166z
M229 182q0 5 -3.5 8t-7.5 3h-87q-5 0 -8.5 -3t-3.5 -8v-22q0 -5 3.5 -8t8.5 -3h87q4 0 7.5 3t3.5 8v22zM299 271q0 5 -3 8t-9 3h-156q-5 0 -8.5 -3t-3.5 -8v-23q0 -5 3.5 -8t8.5 -3h156q6 0 9 3t3 8v23zM341 360q0 5 -3.5 8t-8.5 3h-198q-5 0 -8.5 -3t-3.5 -8v-22
q0 -5 3.5 -8t8.5 -3h198q5 0 8.5 3t3.5 8v22zM300 0v102l236 236l102 -102l-236 -236h-102zM333 68h36v-35h18l42 43l-54 53l-42 -42v-19zM419 153l123 123q5 5 -0.5 10.5t-10.5 0.5l-124 -123q-5 -7 0.5 -12.5t11.5 1.5zM558 360l33 32q9 9 23.5 9t24.5 -9l53 -53
q9 -10 9 -24.5t-9 -23.5l-32 -33z" />
    <glyph glyph-name="launch" unicode="&#xf04;" 
d="M83 156q-41 73 -41 157t42 155t113 113t155 42t155.5 -42t113 -113t41.5 -155t-41.5 -155.5t-113 -113t-155.5 -41.5t-155 41.5t-114 111.5zM133 449q2 -2 4 -2q2 -1 2.5 -4t1.5 -4t5 1q3 -3 1 -8q0 1 19 -11q6 -7 6 -8q2 -5 -3 -8q0 1 -3.5 4.5t-3.5 1.5q-1 -3 0 -8.5
t4 -5.5q-3 0 -3.5 -5.5t-0.5 -14v-10.5v0q-1 -4 2.5 -13.5t7.5 -8.5q-4 -1 10 -16q1 -5 2 -5t4.5 -2.5t5.5 -4.5t5 -4q2 -1 4.5 -8.5t5.5 -10.5q-1 -3 3.5 -7.5t4.5 -8.5h-1h-1q1 -4 5.5 -7t6.5 -5q0 -2 0.5 -4.5t1.5 -4t3 -0.5q1 7 -10 25q-5 9 -6 11t-2 6.5t-2 5.5
q1 0 2.5 -0.5t3.5 -1.5l3 -1.5l1 -0.5q-2 -4 0 -8.5t5 -7t7 -7t5 -5.5q3 -2 5.5 -8t0.5 -6q3 0 7.5 -3.5t7.5 -8.5q2 -3 3 -9.5t2 -9.5t3.5 -5.5t4.5 -4t6 -4t5 -2.5q3 -1 8 -4t9 -5q4 -1 6.5 -1t6.5 1t5 1q5 1 11 -6t9 -10q14 -6 22 -4q-1 0 0.5 -2.5t3.5 -5.5t3.5 -5.5
t2.5 -3.5l7 -7l6 -6q3 2 3 4q-1 -4 3.5 -8.5t7.5 -3.5q6 1 6 13q-13 -7 -21 7q0 1 -1 3l-1.5 3t-0.5 3.5v3t1 0.5q4 0 4.5 1.5t-0.5 4.5l-2 6q0 3 -3.5 8t-4.5 6q-1 -3 -6 -2.5t-7 2.5l-1 -1.5t-1 -2.5h-6q0 2 1.5 7.5t1.5 8.5q0 2 2 5.5t3 6t1.5 5t-1.5 3.5t-8 0
q-7 0 -10 -6q0 -2 -1 -5l-1.5 -4.5t-4.5 -3.5q-3 -1 -9 -0.5t-9 2.5q-6 3 -10 11t-4 15q0 4 1 10.5t1.5 10t-2.5 11.5q1 0 3.5 3t4.5 4h2h2t1.5 1t1.5 1l-2 2q0 1 -2 1q3 -1 11.5 1t10.5 -1q7 -4 10 1l-1 4t-1 6q2 -12 12 -4q1 -1 6.5 -2t7.5 -2q2 -2 3.5 -3t2 -1.5t1.5 0
t2 2.5q4 -5 5 -8q5 -17 8 -19q3 -1 5 -0.5t2 4v6t-1 5.5v3v6l-1 3q-6 2 -7.5 6t0.5 7.5t6 7.5q1 1 3.5 1.5t6 2t5.5 3.5q9 8 6 15q3 0 5 4q-1 0 -2 1t-3 1h-2q4 2 0 7q4 0 4.5 4t2.5 6q4 -6 8 -2q2 3 0 7q1 2 8 3.5t8 3.5q3 -1 4 1.5t1 5v5.5l6 3t5 2l7 5q1 1 0 1q8 -1 12 4
q4 4 -2 7q1 3 -1 4.5t-6 2.5q1 1 4.5 0.5t4.5 0.5q5 4 -2 7q-8 2 -19 -5q-1 0 -3.5 -4t-5.5 -4q1 0 2 2t2.5 4.5l1.5 2.5q2 3 8 6q6 2 21 5q14 2 21 -5q-2 1 3 5.5t7 5.5q1 1 6 2t6 4l1 6q-5 0 -7.5 3.5t-2.5 8.5q0 -1 -3 -3q0 3 -1.5 3.5t-4 -0.5t-3.5 -1q-5 2 -7 3.5t-3 7
t-2 6.5q-1 2 -3.5 4t-4.5 4q0 1 -1 2.5t-1.5 2.5t-1 2.5t-2 1.5t-2.5 -2.5t-2.5 -4.5l-1.5 -2q-1 1 -2.5 1t-2.5 -0.5t-2 -1.5t-2 -1q-2 -1 -4 -1t-3 -1q5 2 -1 4q-3 2 -5 1q3 2 2.5 5.5t-3.5 5.5h2q0 2 -3.5 3.5t-7.5 3t-5 1.5q-4 3 -14 4.5t-13 0.5q-1 -2 -1 -4t1 -5.5
t1 -4.5q1 -3 -2 -6t-3 -5q0 -3 6 -6t5 -9q-2 -3 -7.5 -6.5t-6.5 -5.5q-2 -3 -0.5 -6.5t4.5 -6.5q2 0 1 -1l-2 -2t-2.5 -2t-2.5 -1l-1 -1q-4 -2 -8 2.5t-6 8.5q-3 11 -7 13q-8 3 -9 0q-3 5 -19 11q-9 4 -24 2q3 0 0 6q-2 5 -7 4q1 3 1.5 7.5t0.5 6.5q1 4 5 8q0 1 2.5 4t4 5
t0.5 2q14 -2 20 5q2 2 5 7t5 6q3 3 5.5 2.5t5.5 -2t5 -1.5q6 0 6.5 4.5t-3.5 7.5q5 0 2 7q-2 3 -4 3q-5 2 -9 -2q-4 -1 1 -3q-1 0 -4.5 -4.5t-7 -7t-6.5 2.5q-1 0 -3 5.5t-4 5.5t-6 -6q2 4 -4 6.5t-11 2.5q10 4 -3 10q-3 1 -7.5 2t-7.5 -1q-2 -3 -2 -5t2 -3l4 -2t4.5 -1.5
t2.5 -1.5q6 -3 3 -5q-1 0 -2.5 -1t-3.5 -2.5t-3 -1.5q0 -2 0.5 -6t-0.5 -5q-3 1 -4.5 6t-2.5 8q2 -4 -10 -3h-4q-2 0 -7.5 -0.5t-9 0t-5.5 3.5q-1 3 0 7q2 2 2 1q-2 1 -4.5 3.5l-3.5 3.5q-19 -6 -38 -16q3 0 5 1t5.5 2.5l3.5 1.5q14 6 18 3l2 2q5 -6 7 -10q-3 2 -10 1
q-10 -3 -11 -5q3 -5 1 -8q0 1 -3.5 4t-6 4.5t-4.5 1.5h-10q-59 -33 -95 -90zM397 66v-7q84 14 141 75q-1 2 -4.5 2.5t-4.5 1.5q-8 4 -10 4q0 2 -1.5 4.5t-3 3.5t-5 3t-4.5 3q-1 0 -3.5 2t-3 3t-3 2t-3 0.5t-4.5 -0.5h-1q-1 -1 -2.5 -1.5t-2 -1l-1 -1t-0.5 -1.5q-8 8 -14 10
q-2 0 -5 2t-4 2.5t-3 0.5t-5 -2q-3 -3 -3 -7t-1 -5q-3 2 0 7t1 7q-1 3 -4.5 2.5t-5 -1.5t-4 -3.5t-3.5 -3t-3.5 -2.5t-3.5 -3q-1 -2 -1.5 -5.5t-2.5 -4.5q-1 2 -5 3l-4 1q1 -3 2 -13t2 -15q3 -12 -5 -19q-11 -11 -12 -16q-2 -10 5 -11q0 -2 -3.5 -7.5t-1.5 -8.5z" />
    <glyph glyph-name="edit" unicode="&#xf03;" 
d="M49 4v168l339 339l168 -168l-339 -339h-168zM101 109h53v-53h44l36 37l-96 96l-37 -36v-44zM170 212q0 -8 9 -8q4 0 7 2l221 221q2 2 2 6q0 9 -9 9q-3 0 -6 -2l-220 -221q-4 -2 -4 -7zM413 539l69 66q15 15 37 15q20 0 36 -15l96 -95q14 -17 14 -36q0 -22 -14 -37
l-67 -69z" />
    <glyph glyph-name="audio" unicode="&#xf02;" 
d="M96 143q-2 43 19 80.5t55 59t79 24t92 -25.5v293q0 17 10.5 32t28.5 20l187 -2q7 2 27 -3q16 -9 15.5 -43t-35.5 -47h-125l-1 -348q1 -38 -11 -70.5t-36.5 -56.5t-60 -37.5t-80.5 -12.5q-15 -2 -41 3.5t-52 21t-46.5 42.5t-24.5 70z" />
    <glyph glyph-name="Check" unicode="&#xf00;" horiz-adv-x="733" 
d="M51 194q-48 84 -48 182q0 49 12.5 95t36 86t56.5 73.5t75 57.5q61 39 133.5 47t141.5 -10.5t127 -61.5t92 -106q49 -82 49 -181t-48 -182t-133 -132q-83 -48 -181 -48q-99 0 -181.5 48t-131.5 132zM121 367q0 -12 10 -21l169 -171q9 -9 21 -9q13 0 22 9l255 256q9 7 9 21
q0 13 -9 22l-43 42q-9 8 -20.5 8t-21.5 -8l-192 -192l-107 107q-9 7 -21 7t-19 -7l-43 -42q-10 -10 -10 -22z" />
    <glyph glyph-name="import" unicode="&#xf21;" 
d="M480 687q45 0 122 -35q2 -1 6 -2.5t7 -4.5q4 -1 7 -1q6 -3 6 -8q0 -4 -3 -7t-8 -3h-7q-6 1 -7 1q-17 3 -34 3q-27 -1 -47.5 -5.5t-36.5 -12.5t-27.5 -21.5t-19 -29.5t-12 -36t-5.5 -42q-1 -20 -1 -47v-104h69q7 1 11.5 -4t4.5 -14q0 -8 -3 -11l-139 -138q-6 -6 -13 -6
t-12 5l-138 139q-6 3 -6 11.5t5 12.5q4 5 11 5h70v104q0 193 110 238q36 13 90 13zM57 474q3 8 11.5 13.5t19 4.5t17 -8t5.5 -22v-339q0 -27 21 -46q19 -21 46 -21h352q28 0 47 21q20 19 20 46v341q0 13 8 19t18.5 6.5t19.5 -5.5t9 -15v-346q0 -49 -37 -85q-36 -36 -85 -36
h-352q-49 0 -85 36t-36 85v343z" />
    <glyph glyph-name="error" unicode="&#xf01;" horiz-adv-x="700" 
d="M24 74l285 522q6 12 17 18.5t24 6.5t24 -6.5t18 -18.5l285 -522q13 -23 -1 -47q-6 -10 -17 -16.5t-24 -6.5h-570q-12 0 -23 6.5t-17 16.5q-14 24 -1 47zM297 419l6 -209q0 -4 4 -6t9 -2h68q6 0 9.5 2t3.5 6l7 209q0 6 -4 8q-4 5 -9 5h-82q-3 0 -9 -5q-3 -2 -3 -8zM302 80
q0 -5 4 -8.5t8 -3.5h72q4 0 7.5 3.5t3.5 8.5v70q0 6 -3.5 9t-7.5 3h-72q-4 0 -8 -3t-4 -9v-70z" />
    <glyph glyph-name="starting_document" unicode="&#xf06;" 
d="M84 553q0 11 9 29l1 2q2 3 4 8q15 24 57 34h170q41 0 61.5 -4t55 -17t74 -52t72.5 -78q34 -38 30 -98v-303q2 -37 -20 -54t-52 -18h-390q-16 2 -43 19q-25 17 -29 53v479zM487 338q9 0 13 10.5t4 23t-4 22.5q-4 11 -13 11h-273q-3 0 -5.5 -1t-4.5 -3q-2 -3 -4 -7
q-5 -10 -5 -22.5t4.5 -23t14.5 -10.5h273zM487 98q9 0 13 11t4 23t-4 22q-4 11 -13 11h-273q-10 0 -14.5 -10.5t-4.5 -22.5t4.5 -23t14.5 -11h273zM214 283q-10 0 -14.5 -10t-4.5 -22.5t4.5 -23t14.5 -10.5h273q9 0 13 10.5t4 23t-4 22.5q-1 2 -2 2q-4 8 -11 8h-273z" />
    <glyph glyph-name="flag" unicode="&#xf28f;" 
d="M148 224l-1 392q21 -1 44 -25l334 -335q20 -19 22 -33zM101 570h-51v-39v-422v-59h51v59v429v32zM147 616l1 -612h-47h-98v105v422v85h98h46z" />
    <glyph glyph-name="search_library" unicode="&#xf23;" horiz-adv-x="917" 
d="M910 50q0 -18 -15 -33q-14 -15 -35 -15q-20 0 -34 15l-79 82q-72 -50 -156 -50q-54 0 -104.5 22t-86.5 58.5t-57 85.5t-21 104.5t21 105.5t57 87t86.5 58t106 21t105.5 -21t87 -58t56 -88q23 -49 23 -103q0 -86 -49 -155l81 -80q14 -12 14 -36zM150 348q0 -18 -12 -31
q-11 -11 -31 -11h-63q-16 0 -29 11q-13 13 -13 31v487q0 16 13 28q13 13 29 13h63q20 0 31.5 -12.5t11.5 -28.5v-487zM324 507q-2 -3 -11.5 -16t-19.5 -37.5t-17.5 -62.5t-1.5 -89q12 4 -55 4q-17 0 -30 11q-12 13 -12 31v487q0 16 12 28q13 13 30 13h64q16 0 28.5 -12.5
t12.5 -28.5v-328zM713 199q51 49 51 120.5t-49.5 123t-121.5 51.5t-122.5 -51.5t-50.5 -123t50.5 -121t122.5 -49.5t120 50zM565 641q-11 1 -28 0t-37.5 -6.5t-42 -15.5t-40.5 -27l-65 226q-5 17 2 31q10 14 28 21l61 14q18 4 32.5 -4.5t19.5 -26.5z" />
  </font>
</defs>
</svg>
